<svg width="54" height="54" viewBox="0 0 54 54" fill="none" xmlns="http://www.w3.org/2000/svg">
<path fill-rule="evenodd" clip-rule="evenodd" d="M27 47.25C29.6593 47.25 32.2925 46.7262 34.7493 45.7086C37.2062 44.6909 39.4385 43.1993 41.3189 41.3189C43.1993 39.4385 44.6909 37.2062 45.7086 34.7493C46.7262 32.2925 47.25 29.6593 47.25 27C47.25 24.3407 46.7262 21.7075 45.7086 19.2507C44.6909 16.7938 43.1993 14.5615 41.3189 12.6811C39.4385 10.8007 37.2062 9.3091 34.7493 8.29144C32.2925 7.27378 29.6593 6.75 27 6.75C21.6294 6.75 16.4787 8.88348 12.6811 12.6811C8.88348 16.4787 6.75 21.6294 6.75 27C6.75 32.3706 8.88348 37.5213 12.6811 41.3189C16.4787 45.1165 21.6294 47.25 27 47.25ZM26.478 35.19L37.728 21.69L34.272 18.81L24.597 30.4177L19.5907 25.4093L16.4093 28.5907L23.1593 35.3407L24.9008 37.0823L26.478 35.19Z" fill="#135C9F"/>
</svg>
